<svg xmlns="http://www.w3.org/2000/svg" width="103" height="93" fill="none" viewBox="0 0 103 93">
  <path fill="#fff" d="M62.612 2.56a26.497 26.497 0 0 0-22.724 0L5.596 18.637C.082 21.22-1.358 28.513 1.281 33.55v25.384a3.844 3.844 0 1 0 7.687 0V39.316l30.92 14.494a26.497 26.497 0 0 0 22.724 0l34.291-16.077c7.462-3.496 7.462-15.6 0-19.096L62.612 2.56Z"/>
  <path fill="#fff" d="M15.375 50.812v19.013c0 5.166 2.578 10.004 7.098 12.505C30 86.507 42.045 92.247 51.25 92.247c9.204 0 21.248-5.745 28.776-9.912 4.52-2.506 7.099-7.344 7.099-12.504V50.81l-21.249 9.964a34.184 34.184 0 0 1-29.253 0l-21.248-9.963Z"/>
</svg>
