<svg xmlns="http://www.w3.org/2000/svg" width="30" height="43" fill="none" viewBox="0 0 30 43">
  <path fill="#000" d="M16.896 25.3a1.042 1.042 0 0 0-.833 1.02v2.241a1.563 1.563 0 1 1-3.125 0v-4.502a1.563 1.563 0 0 1 1.453-1.558c1.852-.13 4.576-.76 6.786-2.17 2.158-1.377 3.74-3.422 3.74-6.515 0-2.979-1.105-5.045-2.71-6.414-1.644-1.403-3.932-2.172-6.388-2.268-5.084-.199-9.823 2.406-10.731 6.463a1.563 1.563 0 0 1-3.05-.683c.693-3.098 2.694-5.365 5.285-6.85 2.604-1.493 5.762-2.164 8.619-2.052 2.987.117 6 1.055 8.294 3.013 2.333 1.991 3.806 4.941 3.806 8.791 0 4.415-2.365 7.35-5.184 9.15-1.908 1.217-4.062 1.947-5.96 2.332m-5.002 12.638a3.125 3.125 0 1 1 6.25 0 3.125 3.125 0 0 1-6.25 0Z"/>
  <path stroke="#000" stroke-linecap="round" stroke-linejoin="round" stroke-width="2.083" d="M16.896 25.3a1.042 1.042 0 0 0-.833 1.02v2.241a1.563 1.563 0 1 1-3.125 0v-4.502a1.563 1.563 0 0 1 1.453-1.558c1.852-.13 4.576-.76 6.786-2.17 2.158-1.377 3.74-3.422 3.74-6.515 0-2.979-1.105-5.045-2.71-6.414-1.644-1.403-3.932-2.172-6.388-2.268-5.084-.199-9.823 2.406-10.731 6.463a1.563 1.563 0 0 1-3.05-.683c.693-3.098 2.694-5.365 5.285-6.85 2.604-1.493 5.762-2.164 8.619-2.052 2.987.117 6 1.055 8.294 3.013 2.333 1.991 3.806 4.941 3.806 8.791 0 4.415-2.365 7.35-5.184 9.15-1.908 1.217-4.062 1.947-5.96 2.332m-5.002 12.638a3.125 3.125 0 1 1 6.25 0 3.125 3.125 0 0 1-6.25 0Z"/>
</svg>
