<svg xmlns="http://www.w3.org/2000/svg" width="171" height="21" fill="none" viewBox="0 0 171 21">
  <path fill="url(#a)" d="M.096 16V2h6.36c1.52 0 2.86.293 4.02.88 1.16.573 2.067 1.38 2.72 2.42.654 1.04.98 2.273.98 3.7 0 1.413-.326 2.647-.98 3.7-.653 1.04-1.56 1.853-2.72 2.44-1.16.573-2.5.86-4.02.86H.096Zm3.24-2.66h2.96c.934 0 1.74-.173 2.42-.52a3.83 3.83 0 0 0 1.6-1.52c.387-.653.58-1.42.58-2.3 0-.893-.193-1.66-.58-2.3a3.705 3.705 0 0 0-1.6-1.5c-.68-.36-1.486-.54-2.42-.54h-2.96v8.68Zm17.004 2.82c-1.227 0-2.307-.24-3.24-.72-.92-.48-1.634-1.133-2.14-1.96-.507-.84-.76-1.793-.76-2.86 0-1.08.246-2.033.74-2.86A5.293 5.293 0 0 1 17 5.8c.866-.48 1.846-.72 2.94-.72 1.053 0 2 .227 2.84.68a4.914 4.914 0 0 1 2.02 1.92c.493.827.74 1.82.74 2.98 0 .12-.007.26-.02.42l-.04.42h-8.74V9.68h7.1l-1.2.54c0-.56-.114-1.047-.34-1.46a2.413 2.413 0 0 0-.94-.96c-.4-.24-.867-.36-1.4-.36-.534 0-1.007.12-1.42.36-.4.227-.714.553-.94.98-.227.413-.34.907-.34 1.48v.48c0 .587.126 1.107.38 1.56a2.7 2.7 0 0 0 1.1 1.02c.48.227 1.04.34 1.68.34.573 0 1.073-.087 1.5-.26.44-.173.84-.433 1.2-.78l1.66 1.8a4.931 4.931 0 0 1-1.86 1.3c-.747.293-1.607.44-2.58.44Zm9.497 0c-.92 0-1.807-.107-2.66-.32-.84-.227-1.507-.507-2-.84l1.04-2.24c.493.307 1.073.56 1.74.76.68.187 1.347.28 2 .28.72 0 1.227-.087 1.52-.26.307-.173.46-.413.46-.72 0-.253-.12-.44-.36-.56-.227-.133-.533-.233-.92-.3a45.265 45.265 0 0 0-1.28-.2 17.836 17.836 0 0 1-1.38-.26 4.955 4.955 0 0 1-1.28-.52 2.699 2.699 0 0 1-.94-.92c-.227-.387-.34-.887-.34-1.5 0-.68.193-1.28.58-1.8.4-.52.973-.927 1.72-1.22.747-.307 1.64-.46 2.68-.46.733 0 1.48.08 2.24.24.76.16 1.393.393 1.9.7l-1.04 2.22a5.059 5.059 0 0 0-1.58-.62 6.75 6.75 0 0 0-1.52-.18c-.693 0-1.2.093-1.52.28-.32.187-.48.427-.48.72a.65.65 0 0 0 .34.6c.24.133.553.24.94.32.387.08.807.153 1.26.22.467.053.933.14 1.4.26.467.12.887.293 1.26.52.387.213.7.513.94.9.24.373.36.867.36 1.48 0 .667-.2 1.26-.6 1.78-.4.507-.98.907-1.74 1.2-.747.293-1.66.44-2.74.44Zm5.605-.16V5.24h3.12V16h-3.12Zm1.56-12.26c-.573 0-1.04-.167-1.4-.5a1.622 1.622 0 0 1-.54-1.24c0-.493.18-.907.54-1.24.36-.333.827-.5 1.4-.5s1.04.16 1.4.48c.36.307.54.707.54 1.2 0 .52-.18.953-.54 1.3-.347.333-.813.5-1.4.5Zm8.116 16.3a11.33 11.33 0 0 1-2.94-.38c-.934-.24-1.714-.607-2.34-1.1l1.24-2.24c.453.373 1.026.667 1.72.88.706.227 1.4.34 2.08.34 1.106 0 1.906-.247 2.4-.74.506-.493.76-1.227.76-2.2v-1.62l.2-2.7-.04-2.72V5.24h2.96v8.96c0 2-.52 3.473-1.56 4.42-1.04.947-2.534 1.42-4.48 1.42Zm-.48-4.56c-1 0-1.907-.213-2.72-.64a5.293 5.293 0 0 1-1.94-1.82c-.48-.787-.72-1.7-.72-2.74 0-1.053.24-1.967.72-2.74a5.081 5.081 0 0 1 1.94-1.82c.813-.427 1.72-.64 2.72-.64.906 0 1.706.187 2.4.56.693.36 1.233.927 1.62 1.7.386.76.58 1.74.58 2.94 0 1.187-.194 2.167-.58 2.94-.387.76-.927 1.327-1.62 1.7-.694.373-1.494.56-2.4.56Zm.62-2.56c.546 0 1.033-.107 1.46-.32.426-.227.76-.54 1-.94.24-.4.36-.86.36-1.38 0-.533-.12-.993-.36-1.38-.24-.4-.574-.707-1-.92-.427-.227-.914-.34-1.46-.34-.547 0-1.034.113-1.46.34a2.51 2.51 0 0 0-1.02.92c-.24.387-.36.847-.36 1.38 0 .52.12.98.36 1.38.253.4.593.713 1.02.94.426.213.913.32 1.46.32Zm13.944-7.84c.853 0 1.613.173 2.28.52.68.333 1.213.853 1.6 1.56.386.693.58 1.587.58 2.68V16h-3.12v-5.68c0-.867-.194-1.507-.58-1.92-.374-.413-.907-.62-1.6-.62-.494 0-.94.107-1.34.32-.387.2-.694.513-.92.94-.214.427-.32.973-.32 1.64V16h-3.12V5.24h2.98v2.98l-.56-.9c.386-.72.94-1.273 1.66-1.66s1.54-.58 2.46-.58Zm11.306 11.08c-1.227 0-2.307-.24-3.24-.72-.92-.48-1.634-1.133-2.14-1.96-.507-.84-.76-1.793-.76-2.86 0-1.08.246-2.033.74-2.86a5.295 5.295 0 0 1 2.06-1.96c.866-.48 1.846-.72 2.94-.72 1.053 0 2 .227 2.84.68a4.913 4.913 0 0 1 2.02 1.92c.493.827.74 1.82.74 2.98 0 .12-.007.26-.02.42l-.04.42h-8.74V9.68h7.1l-1.2.54c0-.56-.114-1.047-.34-1.46a2.412 2.412 0 0 0-.94-.96c-.4-.24-.867-.36-1.4-.36-.534 0-1.007.12-1.42.36-.4.227-.714.553-.94.98-.227.413-.34.907-.34 1.48v.48c0 .587.126 1.107.38 1.56a2.7 2.7 0 0 0 1.1 1.02c.48.227 1.04.34 1.68.34.573 0 1.073-.087 1.5-.26.44-.173.84-.433 1.2-.78l1.66 1.8a4.93 4.93 0 0 1-1.86 1.3c-.747.293-1.607.44-2.58.44Zm10.497 0c-1.013 0-1.927-.227-2.74-.68a5.21 5.21 0 0 1-1.94-1.94c-.467-.827-.7-1.8-.7-2.92 0-1.133.233-2.113.7-2.94a5.062 5.062 0 0 1 1.94-1.92c.813-.453 1.727-.68 2.74-.68.907 0 1.7.2 2.38.6.68.4 1.207 1.007 1.58 1.82.373.813.56 1.853.56 3.12 0 1.253-.18 2.293-.54 3.12-.36.813-.88 1.42-1.56 1.82-.667.4-1.473.6-2.42.6Zm.54-2.56c.507 0 .967-.12 1.38-.36.413-.24.74-.58.98-1.02.253-.453.38-.987.38-1.6 0-.627-.127-1.16-.38-1.6a2.58 2.58 0 0 0-.98-1.02 2.698 2.698 0 0 0-1.38-.36c-.52 0-.987.12-1.4.36-.413.24-.747.58-1 1.02-.24.44-.36.973-.36 1.6 0 .613.12 1.147.36 1.6.253.44.587.78 1 1.02.413.24.88.36 1.4.36Zm2.82 2.4v-2.2l.06-3.2-.2-3.18V1.16h3.12V16h-2.98Zm15.092.16c-.947 0-1.76-.2-2.44-.6-.68-.4-1.2-1.007-1.56-1.82-.36-.827-.54-1.867-.54-3.12 0-1.267.186-2.307.56-3.12.386-.813.92-1.42 1.6-1.82.68-.4 1.473-.6 2.38-.6 1.013 0 1.92.227 2.72.68a4.927 4.927 0 0 1 1.92 1.92c.48.827.72 1.807.72 2.94 0 1.12-.24 2.093-.72 2.92a5.069 5.069 0 0 1-1.92 1.94c-.8.453-1.707.68-2.72.68Zm-6.36-.16V1.16h3.12v6.26l-.2 3.18.06 3.2V16h-2.98Zm5.82-2.4c.52 0 .98-.12 1.38-.36.413-.24.74-.58.98-1.02.253-.453.38-.987.38-1.6 0-.627-.127-1.16-.38-1.6-.24-.44-.567-.78-.98-1.02-.4-.24-.86-.36-1.38-.36-.52 0-.987.12-1.4.36-.414.24-.74.58-.98 1.02-.24.44-.36.973-.36 1.6 0 .613.12 1.147.36 1.6.24.44.566.78.98 1.02.413.24.88.36 1.4.36Zm7.655 6.44c-.56 0-1.113-.087-1.66-.26-.546-.173-.993-.413-1.34-.72l1.14-2.22c.24.213.514.38.82.5.32.12.634.18.94.18.44 0 .787-.107 1.04-.32.267-.2.507-.54.72-1.02l.56-1.32.24-.34 3.86-9.28h3l-4.86 11.42c-.346.867-.746 1.547-1.2 2.04-.44.493-.933.84-1.48 1.04-.533.2-1.126.3-1.78.3Zm1.84-3.62-4.8-11.18h3.22l3.72 9-2.14 2.18Zm11.837-.42V2h2.68l8.26 10.08h-1.3V2h3.2v14h-2.66l-8.28-10.08h1.3V16h-3.2Zm21.133 0v-2.1l-.2-.46V9.68c0-.667-.207-1.187-.62-1.56-.4-.373-1.02-.56-1.86-.56-.574 0-1.14.093-1.7.28a4.328 4.328 0 0 0-1.4.72l-1.12-2.18c.586-.413 1.293-.733 2.12-.96a9.48 9.48 0 0 1 2.52-.34c1.64 0 2.913.387 3.82 1.16.906.773 1.36 1.98 1.36 3.62V16h-2.92Zm-3.28.16c-.84 0-1.56-.14-2.16-.42-.6-.293-1.06-.687-1.38-1.18a2.985 2.985 0 0 1-.48-1.66c0-.64.153-1.2.46-1.68.32-.48.82-.853 1.5-1.12.68-.28 1.566-.42 2.66-.42h2.86v1.82h-2.52c-.734 0-1.24.12-1.52.36-.267.24-.4.54-.4.9 0 .4.153.72.46.96.32.227.753.34 1.3.34.52 0 .986-.12 1.4-.36.413-.253.713-.62.9-1.1l.48 1.44c-.227.693-.64 1.22-1.24 1.58-.6.36-1.374.54-2.32.54Zm7.624-.16V5.24h2.98v3.04l-.42-.88c.32-.76.833-1.333 1.54-1.72.706-.4 1.566-.6 2.58-.6v2.88a3.675 3.675 0 0 0-.36-.02 2.749 2.749 0 0 0-.34-.02c-.854 0-1.547.247-2.08.74-.52.48-.78 1.233-.78 2.26V16h-3.12Zm7.593 0V5c0-1.213.36-2.18 1.08-2.9.72-.733 1.746-1.1 3.08-1.1.453 0 .886.047 1.3.14.426.093.786.24 1.08.44l-.82 2.26a2.14 2.14 0 0 0-.58-.28 2.27 2.27 0 0 0-.68-.1c-.454 0-.807.133-1.06.4-.24.253-.36.64-.36 1.16v1l.08 1.34V16h-3.12Zm-1.66-8.12v-2.4h7.46v2.4h-7.46Zm12.154 8.28c-.893 0-1.693-.173-2.4-.52a3.71 3.71 0 0 1-1.62-1.58c-.386-.72-.58-1.633-.58-2.74V5.24h3.12v5.62c0 .893.187 1.553.56 1.98.387.413.927.62 1.62.62.48 0 .907-.1 1.28-.3.374-.213.667-.533.88-.96.214-.44.32-.987.32-1.64V5.24h3.12V16h-2.96v-2.96l.54.86a3.731 3.731 0 0 1-1.6 1.7 4.73 4.73 0 0 1-2.28.56Z"/>
  <defs>
    <linearGradient id="a" x1="-27" x2="197" y1="12" y2="12" gradientUnits="userSpaceOnUse">
      <stop stop-color="#42AAFF"/>
      <stop offset=".58" stop-color="#9747FF"/>
      <stop offset=".89" stop-color="#042392"/>
      <stop offset=".995" stop-color="#042392"/>
    </linearGradient>
  </defs>
</svg>
