<svg xmlns="http://www.w3.org/2000/svg" width="20" height="20" fill="none" viewBox="0 0 20 20">
  <path fill="#000" fill-rule="evenodd" d="M14.173 19.289c-1.32-.049-5.061-.566-8.98-4.483C1.278 10.888.762 7.148.712 5.827.638 3.814 2.18 1.86 3.961 1.096a1.348 1.348 0 0 1 1.325.145C6.752 2.311 7.764 3.927 8.633 5.2a1.379 1.379 0 0 1-.234 1.82L6.61 8.347a.44.44 0 0 0-.13.565c.405.736 1.126 1.832 1.95 2.657.827.825 1.974 1.593 2.762 2.044a.443.443 0 0 0 .59-.148l1.164-1.772a1.378 1.378 0 0 1 1.885-.304c1.29.893 2.795 1.887 3.896 3.298a1.348 1.348 0 0 1 .174 1.361c-.767 1.79-2.709 3.315-4.728 3.24Z" clip-rule="evenodd"/>
</svg>
